<svg width="320" height="320" viewBox="0 0 320 320" fill="none" xmlns="http://www.w3.org/2000/svg">
<circle cx="128" cy="128" r="115.2" transform="matrix(-1 0 0 1 288 32)" stroke="url(#paint0_linear_2009_453)" stroke-width="25.6"/>
<mask id="path-2-inside-1_2009_453" fill="white">
<path d="M31.9999 160C31.9999 143.191 35.3108 126.546 41.7434 111.017C48.176 95.4869 57.6044 81.3762 69.4903 69.4903C81.3762 57.6044 95.4868 48.176 111.016 41.7434C126.546 35.3108 143.191 32 160 32C176.809 32 193.454 35.3108 208.983 41.7434C224.513 48.176 238.624 57.6044 250.51 69.4903C262.396 81.3763 271.824 95.4869 278.257 111.017C284.689 126.546 288 143.191 288 160L216.32 160C216.32 152.604 214.863 145.28 212.033 138.447C209.203 131.614 205.054 125.406 199.824 120.176C194.594 114.946 188.386 110.797 181.553 107.967C174.72 105.137 167.396 103.68 160 103.68C152.604 103.68 145.28 105.137 138.447 107.967C131.614 110.797 125.406 114.946 120.176 120.176C114.946 125.406 110.797 131.614 107.967 138.447C105.137 145.28 103.68 152.604 103.68 160H31.9999Z"/>
</mask>
<path d="M31.9999 160C31.9999 143.191 35.3108 126.546 41.7434 111.017C48.176 95.4869 57.6044 81.3762 69.4903 69.4903C81.3762 57.6044 95.4868 48.176 111.016 41.7434C126.546 35.3108 143.191 32 160 32C176.809 32 193.454 35.3108 208.983 41.7434C224.513 48.176 238.624 57.6044 250.51 69.4903C262.396 81.3763 271.824 95.4869 278.257 111.017C284.689 126.546 288 143.191 288 160L216.32 160C216.32 152.604 214.863 145.28 212.033 138.447C209.203 131.614 205.054 125.406 199.824 120.176C194.594 114.946 188.386 110.797 181.553 107.967C174.72 105.137 167.396 103.68 160 103.68C152.604 103.68 145.28 105.137 138.447 107.967C131.614 110.797 125.406 114.946 120.176 120.176C114.946 125.406 110.797 131.614 107.967 138.447C105.137 145.28 103.68 152.604 103.68 160H31.9999Z" fill="url(#paint1_linear_2009_453)" stroke="url(#paint2_linear_2009_453)" stroke-width="2" mask="url(#path-2-inside-1_2009_453)"/>
<g filter="url(#filter0_i_2009_453)">
<circle cx="160" cy="160" r="67.2" transform="rotate(-180 160 160)" stroke="url(#paint3_linear_2009_453)" stroke-width="25.6"/>
</g>
<path d="M240 160C240 170.506 237.931 180.909 233.91 190.615C229.89 200.321 223.997 209.14 216.569 216.569C209.14 223.997 200.321 229.89 190.615 233.91C180.909 237.931 170.506 240 160 240C149.494 240 139.091 237.931 129.385 233.91C119.679 229.89 110.86 223.997 103.431 216.569C96.0028 209.14 90.11 200.321 86.0896 190.615C82.0693 180.909 80 170.506 80 160L124.8 160C124.8 164.623 125.71 169.2 127.479 173.47C129.248 177.741 131.841 181.622 135.11 184.89C138.378 188.159 142.259 190.752 146.53 192.521C150.8 194.29 155.377 195.2 160 195.2C164.623 195.2 169.2 194.29 173.47 192.521C177.741 190.752 181.622 188.159 184.89 184.89C188.159 181.622 190.752 177.741 192.521 173.47C194.29 169.2 195.2 164.623 195.2 160H240Z" fill="url(#paint4_linear_2009_453)"/>
<defs>
<filter id="filter0_i_2009_453" x="80" y="80" width="160" height="172.8" filterUnits="userSpaceOnUse" color-interpolation-filters="sRGB">
<feFlood flood-opacity="0" result="BackgroundImageFix"/>
<feBlend mode="normal" in="SourceGraphic" in2="BackgroundImageFix" result="shape"/>
<feColorMatrix in="SourceAlpha" type="matrix" values="0 0 0 0 0 0 0 0 0 0 0 0 0 0 0 0 0 0 127 0" result="hardAlpha"/>
<feOffset dy="12.8"/>
<feGaussianBlur stdDeviation="6.4"/>
<feComposite in2="hardAlpha" operator="arithmetic" k2="-1" k3="1"/>
<feColorMatrix type="matrix" values="0 0 0 0 0 0 0 0 0 0 0 0 0 0 0 0 0 0 0.25 0"/>
<feBlend mode="normal" in2="shape" result="effect1_innerShadow_2009_453"/>
</filter>
<linearGradient id="paint0_linear_2009_453" x1="-40" y1="128" x2="278" y2="256" gradientUnits="userSpaceOnUse">
<stop stop-color="#B16FD8"/>
<stop offset="1" stop-color="#2F1941"/>
</linearGradient>
<linearGradient id="paint1_linear_2009_453" x1="80" y1="48" x2="312" y2="210" gradientUnits="userSpaceOnUse">
<stop stop-color="#B16FD8"/>
<stop offset="1" stop-color="#2F1941"/>
</linearGradient>
<linearGradient id="paint2_linear_2009_453" x1="160" y1="32" x2="160" y2="288" gradientUnits="userSpaceOnUse">
<stop stop-color="#D387FF" stop-opacity="0.6"/>
<stop offset="1" stop-color="#D387FF" stop-opacity="0"/>
</linearGradient>
<linearGradient id="paint3_linear_2009_453" x1="80" y1="164" x2="250" y2="222" gradientUnits="userSpaceOnUse">
<stop stop-color="#B16FD8"/>
<stop offset="1" stop-color="#2F1941"/>
</linearGradient>
<linearGradient id="paint4_linear_2009_453" x1="88" y1="206" x2="216" y2="134" gradientUnits="userSpaceOnUse">
<stop stop-color="#B16FD8"/>
<stop offset="1" stop-color="#2F1941"/>
</linearGradient>
</defs>
</svg>
