<svg width="320" height="320" viewBox="0 0 320 320" fill="none" xmlns="http://www.w3.org/2000/svg">
<rect x="-2.98023e-08" y="0.5" width="127" height="127" rx="7.5" transform="matrix(0.866025 0.5 -0.866025 0.5 159.284 147.45)" fill="url(#paint0_linear_2009_511)" stroke="url(#paint1_linear_2009_511)"/>
<rect x="-2.98023e-08" y="0.5" width="127" height="127" rx="7.5" transform="matrix(0.866025 0.5 -0.866025 0.5 159.284 121.85)" fill="url(#paint2_linear_2009_511)" stroke="url(#paint3_linear_2009_511)"/>
<rect x="-2.98023e-08" y="0.5" width="127" height="127" rx="7.5" transform="matrix(0.866025 0.5 -0.866025 0.5 159.284 96.25)" fill="url(#paint4_linear_2009_511)" stroke="url(#paint5_linear_2009_511)"/>
<rect x="-2.98023e-08" y="0.5" width="127" height="127" rx="7.5" transform="matrix(0.866025 0.5 -0.866025 0.5 159.284 70.65)" fill="url(#paint6_linear_2009_511)" stroke="url(#paint7_linear_2009_511)"/>
<rect x="-2.98023e-08" y="0.5" width="127" height="127" rx="7.5" transform="matrix(0.866025 0.5 -0.866025 0.5 159.284 45.05)" fill="url(#paint8_linear_2009_511)" stroke="url(#paint9_linear_2009_511)"/>
<defs>
<linearGradient id="paint0_linear_2009_511" x1="64" y1="0" x2="64" y2="128" gradientUnits="userSpaceOnUse">
<stop offset="0.09" stop-color="#49235F"/>
<stop offset="1" stop-color="#D387FF"/>
</linearGradient>
<linearGradient id="paint1_linear_2009_511" x1="64" y1="0" x2="64" y2="128" gradientUnits="userSpaceOnUse">
<stop stop-color="#D387FF" stop-opacity="0.6"/>
<stop offset="1" stop-color="#D387FF" stop-opacity="0"/>
</linearGradient>
<linearGradient id="paint2_linear_2009_511" x1="64" y1="0" x2="64" y2="128" gradientUnits="userSpaceOnUse">
<stop offset="0.09" stop-color="#49235F"/>
<stop offset="1" stop-color="#D387FF"/>
</linearGradient>
<linearGradient id="paint3_linear_2009_511" x1="64" y1="0" x2="64" y2="128" gradientUnits="userSpaceOnUse">
<stop stop-color="#D387FF" stop-opacity="0.6"/>
<stop offset="1" stop-color="#D387FF" stop-opacity="0"/>
</linearGradient>
<linearGradient id="paint4_linear_2009_511" x1="64" y1="0" x2="64" y2="128" gradientUnits="userSpaceOnUse">
<stop offset="0.09" stop-color="#49235F"/>
<stop offset="1" stop-color="#D387FF"/>
</linearGradient>
<linearGradient id="paint5_linear_2009_511" x1="64" y1="0" x2="64" y2="128" gradientUnits="userSpaceOnUse">
<stop stop-color="#D387FF" stop-opacity="0.6"/>
<stop offset="1" stop-color="#D387FF" stop-opacity="0"/>
</linearGradient>
<linearGradient id="paint6_linear_2009_511" x1="64" y1="0" x2="64" y2="128" gradientUnits="userSpaceOnUse">
<stop stop-color="#49235F"/>
<stop offset="1" stop-color="#D387FF"/>
</linearGradient>
<linearGradient id="paint7_linear_2009_511" x1="64" y1="0" x2="64" y2="128" gradientUnits="userSpaceOnUse">
<stop stop-color="#D387FF" stop-opacity="0.6"/>
<stop offset="1" stop-color="#D387FF" stop-opacity="0"/>
</linearGradient>
<linearGradient id="paint8_linear_2009_511" x1="64" y1="0" x2="64" y2="128" gradientUnits="userSpaceOnUse">
<stop offset="0.09" stop-color="#49235F"/>
<stop offset="1" stop-color="#D387FF"/>
</linearGradient>
<linearGradient id="paint9_linear_2009_511" x1="64" y1="0" x2="64" y2="128" gradientUnits="userSpaceOnUse">
<stop stop-color="#D387FF" stop-opacity="0.6"/>
<stop offset="1" stop-color="#D387FF" stop-opacity="0"/>
</linearGradient>
</defs>
</svg>
