<svg width="20" height="20" viewBox="0 0 20 20" fill="none" xmlns="http://www.w3.org/2000/svg">
<path d="M18.3334 10.0002C18.3334 5.3978 14.6024 1.66684 10 1.66684C5.39765 1.66684 1.66669 5.3978 1.66669 10.0002C1.66669 13.9083 4.35719 17.1876 7.98689 18.0881V12.5467H6.26849V10.0002H7.98689V8.90287C7.98689 6.06647 9.27049 4.7518 12.0552 4.7518C12.5831 4.7518 13.4941 4.8553 13.8667 4.95883V7.2673C13.67 7.2466 13.3284 7.23623 12.904 7.23623C11.5376 7.23623 11.0096 7.75383 11.0096 9.09957V10.0002H13.7316L13.264 12.5467H11.0096V18.2725C15.1358 17.7741 18.3334 14.2608 18.3334 10.0002Z" fill="#D387FF"/>
</svg>
