<svg width="20" height="20" viewBox="0 0 20 20" fill="none" xmlns="http://www.w3.org/2000/svg">
<path fill-rule="evenodd" clip-rule="evenodd" d="M16.4815 18.3337H3.51854C2.49579 18.3337 1.66669 17.5046 1.66669 16.4818V3.51884C1.66669 2.49609 2.49579 1.66699 3.51854 1.66699H16.4815C17.5043 1.66699 18.3334 2.49609 18.3334 3.51884V16.4818C18.3334 17.5046 17.5043 18.3337 16.4815 18.3337ZM13.4362 15.8337H15.8334V10.9093C15.8334 8.82569 14.6523 7.81826 13.0025 7.81826C11.352 7.81826 10.6574 9.10355 10.6574 9.10355V8.05588H8.34724V15.8337H10.6574V11.7508C10.6574 10.6568 11.161 10.0058 12.1249 10.0058C13.0109 10.0058 13.4362 10.6314 13.4362 11.7508V15.8337ZM4.16669 5.60222C4.16669 6.3948 4.80433 7.03744 5.59122 7.03744C6.37811 7.03744 7.01537 6.3948 7.01537 5.60222C7.01537 4.80964 6.37811 4.16699 5.59122 4.16699C4.80433 4.16699 4.16669 4.80964 4.16669 5.60222ZM6.80726 15.8337H4.39835V8.05588H6.80726V15.8337Z" fill="#D387FF"/>
</svg>
