<svg width="48" height="48" viewBox="0 0 48 48" fill="none" xmlns="http://www.w3.org/2000/svg">
<g clip-path="url(#clip0_2009_849)">
<mask id="mask0_2009_849" style="mask-type:luminance" maskUnits="userSpaceOnUse" x="0" y="0" width="48" height="48">
<path d="M48 0H0V48H48V0Z" fill="white"/>
</mask>
<g mask="url(#mask0_2009_849)">
<path fill-rule="evenodd" clip-rule="evenodd" d="M35.129 8.30131C35.431 7.57351 35.5853 6.7931 35.5836 6.00523C35.5841 4.81994 35.2334 3.66108 34.5758 2.67492C33.9182 1.68876 32.9834 0.919524 31.889 0.464328C30.7946 0.00913273 29.5898 -0.111618 28.4268 0.11732C27.264 0.346258 26.1948 0.914621 25.3546 1.75065L24.001 3.0113L22.6565 1.75479C21.5306 0.63025 20.0041 -0.000968618 18.4128 1.11569e-06C16.8215 0.00097085 15.2957 0.634049 14.1712 1.75996C13.0466 2.88588 12.4154 4.4124 12.4164 6.00372C12.4173 7.59502 13.0504 9.12077 14.1763 10.2453L23.4114 19.617C23.4884 19.6951 23.5802 19.7572 23.6814 19.7996C23.7826 19.842 23.8912 19.8638 24.001 19.8638C24.1106 19.8638 24.2194 19.842 24.3204 19.7996C24.4217 19.7572 24.5134 19.6951 24.5904 19.617L33.8256 10.2453C34.3843 9.68986 34.8274 9.02911 35.129 8.30131ZM12.8709 39.6986C12.5691 40.4266 12.4146 41.2068 12.4164 41.9947C12.4158 43.1801 12.7665 44.339 13.4241 45.3252C14.0816 46.3114 15.0166 47.0806 16.111 47.5356C17.2054 47.9909 18.4101 48.1116 19.5731 47.8826C20.7361 47.6537 21.8051 47.0854 22.6453 46.2494L23.9991 44.9887L25.3435 46.2451C26.4694 47.3698 27.996 48.001 29.5872 48C31.1786 47.999 32.7043 47.3659 33.829 46.2401C34.9534 45.1142 35.5846 43.5876 35.5836 41.9964C35.5826 40.405 34.9495 38.8793 33.8237 37.7546L24.5885 28.3831C24.5117 28.3049 24.4198 28.2427 24.3185 28.2005C24.2174 28.158 24.1087 28.1362 23.9991 28.1362C23.8894 28.1362 23.7807 28.158 23.6795 28.2005C23.5783 28.2427 23.4866 28.3049 23.4096 28.3831L14.1745 37.7546C13.6157 38.3102 13.1726 38.971 12.8709 39.6986ZM41.9947 35.5838C41.2068 35.5855 40.4266 35.431 39.6986 35.1293C38.971 34.8276 38.3102 34.3843 37.7546 33.8256L28.3831 24.5906C28.3049 24.5136 28.2427 24.4217 28.2005 24.3206C28.158 24.2194 28.1362 24.1109 28.1362 24.001C28.1362 23.8914 28.158 23.7827 28.2005 23.6815C28.2427 23.5803 28.3049 23.4886 28.3831 23.4116L37.7546 14.1765C38.8793 13.0506 40.405 12.4175 41.9964 12.4165C43.5876 12.4155 45.1142 13.0467 46.2401 14.1713C47.3659 15.2958 47.999 16.8216 48 18.4129C48.001 20.0042 47.3698 21.5307 46.2451 22.6566L44.9887 24.001L46.2494 25.3548C47.0854 26.195 47.6537 27.264 47.8826 28.427C48.1116 29.5901 47.9909 30.7946 47.5356 31.889C47.0806 32.9834 46.3114 33.9185 45.3252 34.5761C44.339 35.2337 43.1801 35.5843 41.9947 35.5838ZM8.30131 12.8707C7.57351 12.5689 6.7931 12.4145 6.00523 12.4162C4.81994 12.4157 3.66106 12.7664 2.67492 13.4239C1.68875 14.0815 0.919522 15.0165 0.464328 16.1109C0.00913259 17.2053 -0.111618 18.41 0.117319 19.573C0.346258 20.7359 0.914618 21.805 1.75065 22.6452L3.0113 23.9989L1.75479 25.3433C0.630247 26.4694 -0.000968638 27.9958 1.11574e-06 29.5872C0.00097087 31.1784 0.634046 32.7041 1.75996 33.8287C2.88588 34.9534 4.4124 35.5846 6.00372 35.5836C7.59502 35.5826 9.12077 34.9495 10.2453 33.8234L19.617 24.5885C19.6951 24.5114 19.7572 24.4198 19.7996 24.3185C19.842 24.2172 19.8638 24.1087 19.8638 23.9989C19.8638 23.8892 19.842 23.7806 19.7996 23.6794C19.7572 23.5782 19.6951 23.4864 19.617 23.4095L10.2453 14.1743C9.68986 13.6156 9.02911 13.1725 8.30131 12.8707Z" fill="url(#paint0_linear_2009_849)"/>
</g>
</g>
<defs>
<linearGradient id="paint0_linear_2009_849" x1="24" y1="0" x2="24" y2="48" gradientUnits="userSpaceOnUse">
<stop stop-color="#49235F"/>
<stop offset="1" stop-color="#D387FF"/>
</linearGradient>
<clipPath id="clip0_2009_849">
<rect width="48" height="48" fill="white"/>
</clipPath>
</defs>
</svg>
