<svg width="48" height="48" viewBox="0 0 48 48" fill="none" xmlns="http://www.w3.org/2000/svg">
<g clip-path="url(#clip0_2009_683)">
<mask id="mask0_2009_683" style="mask-type:luminance" maskUnits="userSpaceOnUse" x="0" y="0" width="48" height="48">
<path d="M48 0H0V48H48V0Z" fill="white"/>
</mask>
<g mask="url(#mask0_2009_683)">
<path d="M39.8311 32.1687C38.519 33.4808 36.3914 33.4808 35.0793 32.1687L29.2864 26.3756C27.9741 25.0635 27.9741 22.9361 29.2864 21.624L35.0793 15.831C36.3914 14.5188 38.519 14.5188 39.8311 15.831L45.6242 21.6239C46.9363 22.9361 46.9363 25.0635 45.6242 26.3756L39.8311 32.1687ZM12.9206 32.1687C11.6084 33.4808 9.48097 33.4808 8.16882 32.1687L2.37585 26.3756C1.06368 25.0635 1.06368 22.9361 2.37584 21.624L8.16882 15.831C9.48097 14.5188 11.6084 14.5188 12.9206 15.831L18.7136 21.6239C20.0257 22.9361 20.0257 25.0635 18.7136 26.3756L12.9206 32.1687ZM26.376 45.6239C25.0636 46.9362 22.9363 46.9362 21.6241 45.6239L15.8311 39.831C14.519 38.5189 14.519 36.3913 15.8311 35.0792L21.6241 29.2863C22.9363 27.974 25.0636 27.974 26.376 29.2863L32.1688 35.0792C33.4809 36.3913 33.4809 38.5189 32.1688 39.831L26.376 45.6239ZM26.376 18.7134C25.0636 20.0256 22.9363 20.0256 21.6241 18.7134L15.8311 12.9204C14.519 11.6083 14.519 9.48086 15.8311 8.16869L21.6241 2.37572C22.9363 1.06356 25.0636 1.06356 26.376 2.37572L32.1688 8.16869C33.4809 9.48086 33.4809 11.6083 32.1688 12.9204L26.376 18.7134Z" fill="url(#paint0_linear_2009_683)"/>
</g>
</g>
<defs>
<linearGradient id="paint0_linear_2009_683" x1="24" y1="1.3916" x2="24" y2="46.6081" gradientUnits="userSpaceOnUse">
<stop stop-color="#49235F"/>
<stop offset="1" stop-color="#D387FF"/>
</linearGradient>
<clipPath id="clip0_2009_683">
<rect width="48" height="48" fill="white"/>
</clipPath>
</defs>
</svg>
