<svg width="48" height="48" viewBox="0 0 48 48" fill="none" xmlns="http://www.w3.org/2000/svg">
<g clip-path="url(#clip0_2009_861)">
<mask id="mask0_2009_861" style="mask-type:luminance" maskUnits="userSpaceOnUse" x="0" y="0" width="48" height="48">
<path d="M48 0H0V48H48V0Z" fill="white"/>
</mask>
<g mask="url(#mask0_2009_861)">
<path fill-rule="evenodd" clip-rule="evenodd" d="M13 24C19.0751 24 24 19.0751 24 13C24 19.0751 28.9249 24 35 24C28.9249 24 24 28.9249 24 35C24 28.9249 19.0751 24 13 24ZM13 24C6.92488 24 2 28.9249 2 35C2 41.0751 6.92488 46 13 46C19.0751 46 24 41.0751 24 35C24 41.0751 28.9249 46 35 46C41.0751 46 46 41.0751 46 35C46 28.9249 41.0751 24 35 24C41.0751 24 46 19.0751 46 13C46 6.92488 41.0751 2 35 2C28.9249 2 24 6.92488 24 13C24 6.92488 19.0751 2 13 2C6.92488 2 2 6.92488 2 13C2 19.0751 6.92488 24 13 24Z" fill="url(#paint0_linear_2009_861)"/>
</g>
</g>
<defs>
<linearGradient id="paint0_linear_2009_861" x1="24" y1="2" x2="24" y2="46" gradientUnits="userSpaceOnUse">
<stop stop-color="#49235F"/>
<stop offset="1" stop-color="#D387FF"/>
</linearGradient>
<clipPath id="clip0_2009_861">
<rect width="48" height="48" fill="white"/>
</clipPath>
</defs>
</svg>
