<svg width="48" height="48" viewBox="0 0 48 48" fill="none" xmlns="http://www.w3.org/2000/svg">
<g clip-path="url(#clip0_2011_672)">
<mask id="mask0_2011_672" style="mask-type:luminance" maskUnits="userSpaceOnUse" x="0" y="0" width="48" height="48">
<path d="M0 0L0 48H48V0H0Z" fill="white"/>
</mask>
<g mask="url(#mask0_2011_672)">
<path fill-rule="evenodd" clip-rule="evenodd" d="M24 0C37.2547 -5.79386e-07 48 10.7452 48 24C48 37.2547 37.2547 48 24 48C10.7452 48 5.79386e-07 37.2547 0 24C-5.79388e-07 10.7452 10.7452 5.79386e-07 24 0ZM24 0C33.1459 -3.99778e-07 40.56 7.41415 40.56 16.56C40.56 25.7059 33.1459 33.12 24 33.12C14.8542 33.12 7.44 25.7059 7.44 16.56C7.44 7.41415 14.8542 3.99778e-07 24 0ZM31.68 16.56C31.68 12.3185 28.2415 8.88 24 8.88C19.7585 8.88 16.32 12.3185 16.32 16.56C16.32 20.8015 19.7585 24.24 24 24.24C28.2415 24.24 31.68 20.8015 31.68 16.56Z" fill="url(#paint0_linear_2011_672)"/>
</g>
</g>
<defs>
<linearGradient id="paint0_linear_2011_672" x1="24" y1="0" x2="24" y2="48" gradientUnits="userSpaceOnUse">
<stop stop-color="#49235F"/>
<stop offset="1" stop-color="#D387FF"/>
</linearGradient>
<clipPath id="clip0_2011_672">
<rect width="48" height="48" fill="white"/>
</clipPath>
</defs>
</svg>
