<svg width="48" height="48" viewBox="0 0 48 48" fill="none" xmlns="http://www.w3.org/2000/svg">
<g clip-path="url(#clip0_2009_406)">
<mask id="mask0_2009_406" style="mask-type:luminance" maskUnits="userSpaceOnUse" x="0" y="0" width="48" height="48">
<path d="M48 0H0V48H48V0Z" fill="white"/>
</mask>
<g mask="url(#mask0_2009_406)">
<path fill-rule="evenodd" clip-rule="evenodd" d="M24.0929 22.0448C23.098 9.7044 12.768 0 0.171429 0C0.171429 12.5382 9.78607 22.8307 22.0448 23.9071C9.7044 24.9019 5.50613e-07 35.232 0 47.8286C12.5382 47.8286 22.8307 38.214 23.9071 25.9553C24.9019 38.2956 35.232 48 47.8286 48C47.8286 35.4619 38.214 25.1693 25.9553 24.0929C38.2956 23.098 48 12.768 48 0.171429C35.4619 0.171428 25.1693 9.78607 24.0929 22.0448ZM23.9994 24.0005L24.0005 24.0007L24.0007 23.9994C24.0002 23.9994 23.9994 23.9994 23.9994 23.9994V24.0005Z" fill="url(#paint0_linear_2009_406)"/>
</g>
</g>
<defs>
<linearGradient id="paint0_linear_2009_406" x1="24" y1="0" x2="24" y2="48" gradientUnits="userSpaceOnUse">
<stop stop-color="#49235F"/>
<stop offset="1" stop-color="#D387FF"/>
</linearGradient>
<clipPath id="clip0_2009_406">
<rect width="48" height="48" fill="white"/>
</clipPath>
</defs>
</svg>
