<svg width="320" height="320" viewBox="0 0 320 320" fill="none" xmlns="http://www.w3.org/2000/svg">
<path d="M159.434 58.3548C152.266 51.1865 139.798 50.3702 125.147 55.2539C110.547 60.1206 94.0343 70.5804 79.1069 85.5077C64.1796 100.435 53.7198 116.948 48.8531 131.548C43.9695 146.199 44.7857 158.667 51.954 165.835C59.1224 173.003 71.5903 173.82 86.2412 168.936C100.841 164.069 117.354 153.61 132.281 138.682C147.209 123.755 157.668 107.242 162.535 92.642C167.419 77.991 166.603 65.5232 159.434 58.3548Z" stroke="url(#paint0_linear_2009_476)" stroke-width="1.6"/>
<path d="M168.698 67.1934C161.406 59.9014 148.788 59.125 134.104 64.0199C119.451 68.9043 102.899 79.3931 87.9461 94.3463C72.9929 109.299 62.5041 125.851 57.6198 140.504C52.7249 155.188 53.5012 167.806 60.7932 175.098C68.0852 182.39 80.7026 183.166 95.3873 178.271C110.04 173.387 126.592 162.898 141.545 147.945C156.498 132.992 166.987 116.441 171.871 101.787C176.766 87.1027 175.99 74.4854 168.698 67.1934Z" fill="url(#paint1_linear_2009_476)" stroke="url(#paint2_linear_2009_476)"/>
<path d="M177.748 76.2449C170.456 68.9529 157.839 68.1766 143.154 73.0715C128.501 77.9559 111.95 88.4447 96.9969 103.398C82.0437 118.351 71.5549 134.902 66.6706 149.555C61.7756 164.24 62.552 176.857 69.844 184.149C77.136 191.441 89.7533 192.218 104.438 187.323C119.091 182.438 135.642 171.95 150.596 156.997C165.549 142.043 176.038 125.492 180.922 110.839C185.817 96.1543 185.04 83.5369 177.748 76.2449Z" fill="url(#paint3_linear_2009_476)" stroke="url(#paint4_linear_2009_476)"/>
<path d="M186.799 85.2949C179.507 78.0029 166.89 77.2266 152.205 82.1215C137.552 87.0059 121.001 97.4947 106.048 112.448C91.0945 127.401 80.6057 143.952 75.7213 158.605C70.8264 173.29 71.6027 185.907 78.8947 193.199C86.1868 200.491 98.8041 201.268 113.489 196.373C128.142 191.488 144.693 181 159.646 166.047C174.599 151.093 185.088 134.542 189.973 119.889C194.868 105.204 194.091 92.5869 186.799 85.2949Z" fill="url(#paint5_linear_2009_476)" stroke="url(#paint6_linear_2009_476)"/>
<path d="M195.85 94.3465C188.558 87.0545 175.941 86.2782 161.256 91.1731C146.603 96.0574 130.052 106.546 115.099 121.499C100.146 136.453 89.6567 153.004 84.7724 167.657C79.8774 182.342 80.6538 194.959 87.9458 202.251C95.2378 209.543 107.855 210.319 122.54 205.424C137.193 200.54 153.744 190.051 168.697 175.098C183.651 160.145 194.139 143.594 199.024 128.941C203.919 114.256 203.142 101.639 195.85 94.3465Z" fill="url(#paint7_linear_2009_476)" stroke="url(#paint8_linear_2009_476)"/>
<path d="M204.9 103.398C197.608 96.1056 184.991 95.3293 170.306 100.224C155.653 105.109 139.102 115.597 124.149 130.551C109.196 145.504 98.7069 162.055 93.8225 176.708C88.9276 191.393 89.7039 204.01 96.9959 211.302C104.288 218.594 116.905 219.37 131.59 214.476C146.243 209.591 162.794 199.102 177.748 184.149C192.701 169.196 203.19 152.645 208.074 137.992C212.969 123.307 212.192 110.69 204.9 103.398Z" fill="url(#paint9_linear_2009_476)" stroke="url(#paint10_linear_2009_476)"/>
<path d="M213.952 112.448C206.66 105.156 194.043 104.38 179.358 109.275C164.705 114.159 148.154 124.648 133.201 139.601C118.248 154.554 107.759 171.105 102.874 185.758C97.9795 200.443 98.7558 213.061 106.048 220.353C113.34 227.645 125.957 228.421 140.642 223.526C155.295 218.642 171.846 208.153 186.799 193.2C201.753 178.247 212.241 161.695 217.126 147.042C222.021 132.357 221.244 119.74 213.952 112.448Z" fill="url(#paint11_linear_2009_476)" stroke="url(#paint12_linear_2009_476)"/>
<path d="M223.003 121.5C215.711 114.208 203.094 113.431 188.409 118.326C173.756 123.211 157.205 133.699 142.252 148.653C127.298 163.606 116.81 180.157 111.925 194.81C107.03 209.495 107.807 222.112 115.099 229.404C122.391 236.696 135.008 237.472 149.693 232.578C164.346 227.693 180.897 217.204 195.85 202.251C210.803 187.298 221.292 170.747 226.177 156.094C231.072 141.409 230.295 128.792 223.003 121.5Z" fill="url(#paint13_linear_2009_476)" stroke="url(#paint14_linear_2009_476)"/>
<path d="M232.054 130.551C224.762 123.259 212.145 122.483 197.46 127.378C182.807 132.262 166.256 142.751 151.303 157.704C136.35 172.657 125.861 189.208 120.976 203.862C116.081 218.546 116.858 231.164 124.15 238.456C131.442 245.748 144.059 246.524 158.744 241.629C173.397 236.745 189.948 226.256 204.901 211.303C219.854 196.35 230.343 179.798 235.228 165.145C240.123 150.461 239.346 137.843 232.054 130.551Z" fill="url(#paint15_linear_2009_476)" stroke="url(#paint16_linear_2009_476)"/>
<path d="M241.104 139.601C233.812 132.309 221.195 131.532 206.51 136.427C191.857 141.312 175.306 151.8 160.353 166.754C145.4 181.707 134.911 198.258 130.027 212.911C125.132 227.596 125.908 240.213 133.2 247.505C140.492 254.797 153.109 255.574 167.794 250.679C182.447 245.794 198.998 235.305 213.952 220.352C228.905 205.399 239.393 188.848 244.278 174.195C249.173 159.51 248.396 146.893 241.104 139.601Z" fill="url(#paint17_linear_2009_476)" stroke="url(#paint18_linear_2009_476)"/>
<path d="M250.156 148.653C242.864 141.361 230.247 140.584 215.562 145.479C200.909 150.364 184.358 160.853 169.405 175.806C154.451 190.759 143.963 207.31 139.078 221.963C134.183 236.648 134.96 249.265 142.252 256.557C149.544 263.849 162.161 264.626 176.846 259.731C191.499 254.846 208.05 244.358 223.003 229.404C237.956 214.451 248.445 197.9 253.33 183.247C258.225 168.562 257.448 155.945 250.156 148.653Z" fill="url(#paint19_linear_2009_476)" stroke="url(#paint20_linear_2009_476)"/>
<path d="M259.207 157.703C251.915 150.411 239.298 149.634 224.613 154.529C209.96 159.414 193.409 169.903 178.456 184.856C163.502 199.809 153.014 216.36 148.129 231.013C143.234 245.698 144.011 258.315 151.303 265.607C158.595 272.899 171.212 273.676 185.897 268.781C200.55 263.896 217.101 253.407 232.054 238.454C247.007 223.501 257.496 206.95 262.381 192.297C267.276 177.612 266.499 164.995 259.207 157.703Z" fill="url(#paint21_linear_2009_476)" stroke="url(#paint22_linear_2009_476)"/>
<path d="M268.046 166.966C260.878 159.798 248.41 158.982 233.759 163.866C219.159 168.732 202.646 179.192 187.719 194.119C172.791 209.047 162.332 225.559 157.465 240.16C152.581 254.81 153.397 267.278 160.566 274.447C167.734 281.615 180.202 282.431 194.853 277.548C209.453 272.681 225.966 262.221 240.893 247.294C255.82 232.366 266.28 215.854 271.147 201.254C276.031 186.603 275.214 174.135 268.046 166.966Z" stroke="url(#paint23_linear_2009_476)" stroke-width="1.6"/>
<path d="M213.742 184L219.629 201.525L238.683 190.524L223.268 212.356L229.156 229.881L213.742 225.849L198.327 247.681L204.215 223.357L188.8 219.324L207.854 208.324L213.742 184Z" fill="url(#paint24_linear_2009_476)"/>
<defs>
<linearGradient id="paint0_linear_2009_476" x1="132.847" y1="139.248" x2="78.5413" y2="84.942" gradientUnits="userSpaceOnUse">
<stop stop-color="#D387FF" stop-opacity="0"/>
<stop offset="1" stop-color="#D387FF" stop-opacity="0.6"/>
</linearGradient>
<linearGradient id="paint1_linear_2009_476" x1="166.545" y1="41.7457" x2="211.092" y2="111.74" gradientUnits="userSpaceOnUse">
<stop stop-color="#B16FD8"/>
<stop offset="0.945" stop-color="#2F1941"/>
</linearGradient>
<linearGradient id="paint2_linear_2009_476" x1="141.898" y1="148.299" x2="87.5925" y2="93.9927" gradientUnits="userSpaceOnUse">
<stop stop-color="#D387FF" stop-opacity="0.6"/>
<stop offset="1" stop-color="#D387FF" stop-opacity="0"/>
</linearGradient>
<linearGradient id="paint3_linear_2009_476" x1="175.596" y1="50.7973" x2="220.143" y2="120.792" gradientUnits="userSpaceOnUse">
<stop stop-color="#B16FD8"/>
<stop offset="0.945" stop-color="#2F1941"/>
</linearGradient>
<linearGradient id="paint4_linear_2009_476" x1="150.949" y1="157.35" x2="96.6433" y2="103.044" gradientUnits="userSpaceOnUse">
<stop stop-color="#D387FF" stop-opacity="0.6"/>
<stop offset="1" stop-color="#D387FF" stop-opacity="0"/>
</linearGradient>
<linearGradient id="paint5_linear_2009_476" x1="184.647" y1="59.8473" x2="229.193" y2="129.842" gradientUnits="userSpaceOnUse">
<stop stop-color="#B16FD8"/>
<stop offset="0.945" stop-color="#2F1941"/>
</linearGradient>
<linearGradient id="paint6_linear_2009_476" x1="160" y1="166.4" x2="105.694" y2="112.094" gradientUnits="userSpaceOnUse">
<stop stop-color="#D387FF" stop-opacity="0.6"/>
<stop offset="1" stop-color="#D387FF" stop-opacity="0"/>
</linearGradient>
<linearGradient id="paint7_linear_2009_476" x1="193.698" y1="68.8988" x2="238.244" y2="138.894" gradientUnits="userSpaceOnUse">
<stop stop-color="#B16FD8"/>
<stop offset="0.945" stop-color="#2F1941"/>
</linearGradient>
<linearGradient id="paint8_linear_2009_476" x1="169.051" y1="175.452" x2="114.745" y2="121.146" gradientUnits="userSpaceOnUse">
<stop stop-color="#D387FF" stop-opacity="0.6"/>
<stop offset="1" stop-color="#D387FF" stop-opacity="0"/>
</linearGradient>
<linearGradient id="paint9_linear_2009_476" x1="202.748" y1="77.95" x2="247.295" y2="147.945" gradientUnits="userSpaceOnUse">
<stop stop-color="#B16FD8"/>
<stop offset="0.945" stop-color="#2F1941"/>
</linearGradient>
<linearGradient id="paint10_linear_2009_476" x1="178.101" y1="184.503" x2="123.795" y2="130.197" gradientUnits="userSpaceOnUse">
<stop stop-color="#D387FF" stop-opacity="0.6"/>
<stop offset="1" stop-color="#D387FF" stop-opacity="0"/>
</linearGradient>
<linearGradient id="paint11_linear_2009_476" x1="211.8" y1="87.0004" x2="256.347" y2="156.995" gradientUnits="userSpaceOnUse">
<stop stop-color="#B16FD8"/>
<stop offset="0.945" stop-color="#2F1941"/>
</linearGradient>
<linearGradient id="paint12_linear_2009_476" x1="187.153" y1="193.553" x2="132.847" y2="139.247" gradientUnits="userSpaceOnUse">
<stop stop-color="#D387FF" stop-opacity="0.6"/>
<stop offset="1" stop-color="#D387FF" stop-opacity="0"/>
</linearGradient>
<linearGradient id="paint13_linear_2009_476" x1="220.851" y1="96.052" x2="265.397" y2="166.047" gradientUnits="userSpaceOnUse">
<stop stop-color="#B16FD8"/>
<stop offset="0.945" stop-color="#2F1941"/>
</linearGradient>
<linearGradient id="paint14_linear_2009_476" x1="196.204" y1="202.605" x2="141.898" y2="148.299" gradientUnits="userSpaceOnUse">
<stop stop-color="#D387FF" stop-opacity="0.6"/>
<stop offset="1" stop-color="#D387FF" stop-opacity="0"/>
</linearGradient>
<linearGradient id="paint15_linear_2009_476" x1="229.902" y1="105.103" x2="274.448" y2="175.098" gradientUnits="userSpaceOnUse">
<stop stop-color="#B16FD8"/>
<stop offset="0.945" stop-color="#2F1941"/>
</linearGradient>
<linearGradient id="paint16_linear_2009_476" x1="205.255" y1="211.656" x2="150.949" y2="157.35" gradientUnits="userSpaceOnUse">
<stop stop-color="#D387FF" stop-opacity="0.6"/>
<stop offset="1" stop-color="#D387FF" stop-opacity="0"/>
</linearGradient>
<linearGradient id="paint17_linear_2009_476" x1="238.952" y1="114.153" x2="283.499" y2="184.148" gradientUnits="userSpaceOnUse">
<stop stop-color="#B16FD8"/>
<stop offset="0.945" stop-color="#2F1941"/>
</linearGradient>
<linearGradient id="paint18_linear_2009_476" x1="214.305" y1="220.706" x2="159.999" y2="166.4" gradientUnits="userSpaceOnUse">
<stop stop-color="#D387FF" stop-opacity="0.6"/>
<stop offset="1" stop-color="#D387FF" stop-opacity="0"/>
</linearGradient>
<linearGradient id="paint19_linear_2009_476" x1="248.004" y1="123.205" x2="292.55" y2="193.2" gradientUnits="userSpaceOnUse">
<stop stop-color="#B16FD8"/>
<stop offset="0.945" stop-color="#2F1941"/>
</linearGradient>
<linearGradient id="paint20_linear_2009_476" x1="223.357" y1="229.758" x2="169.051" y2="175.452" gradientUnits="userSpaceOnUse">
<stop stop-color="#D387FF" stop-opacity="0.6"/>
<stop offset="1" stop-color="#D387FF" stop-opacity="0"/>
</linearGradient>
<linearGradient id="paint21_linear_2009_476" x1="257.055" y1="132.255" x2="301.601" y2="202.25" gradientUnits="userSpaceOnUse">
<stop stop-color="#B16FD8"/>
<stop offset="0.945" stop-color="#2F1941"/>
</linearGradient>
<linearGradient id="paint22_linear_2009_476" x1="232.408" y1="238.808" x2="178.102" y2="184.502" gradientUnits="userSpaceOnUse">
<stop stop-color="#D387FF" stop-opacity="0.6"/>
<stop offset="1" stop-color="#D387FF" stop-opacity="0"/>
</linearGradient>
<linearGradient id="paint23_linear_2009_476" x1="241.459" y1="247.859" x2="187.153" y2="193.554" gradientUnits="userSpaceOnUse">
<stop stop-color="#D387FF" stop-opacity="0.6"/>
<stop offset="1" stop-color="#D387FF" stop-opacity="0"/>
</linearGradient>
<linearGradient id="paint24_linear_2009_476" x1="213.742" y1="184" x2="237.462" y2="225.086" gradientUnits="userSpaceOnUse">
<stop stop-color="#D387FF" stop-opacity="0.6"/>
<stop offset="1" stop-color="#D387FF" stop-opacity="0"/>
</linearGradient>
</defs>
</svg>
